<svg width="32" height="32" viewBox="0 0 32 32" fill="none" xmlns="http://www.w3.org/2000/svg">
    <path d="M0 4a4 4 0 0 1 4-4h24a4 4 0 0 1 4 4v24a4 4 0 0 1-4 4H4a4 4 0 0 1-4-4V4z" fill="#F3F4F6"/>
    <path d="M8.709 16c0 .311.138.6.269.817.14.234.33.476.538.711.418.473.963.98 1.491 1.44a36.721 36.721 0 0 0 2.073 1.666l.036.027.01.007.003.002a.625.625 0 0 0 .742-1.006l-.01-.008-.034-.025-.129-.096a37.17 37.17 0 0 1-1.871-1.512c-.513-.445-1.01-.91-1.374-1.322a5.691 5.691 0 0 1-.067-.077h12.281a.625.625 0 1 0 0-1.25H10.388l.065-.075c.364-.411.86-.877 1.374-1.322a35.62 35.62 0 0 1 2-1.608l.034-.025.01-.008a.625.625 0 1 0-.742-1.006l-.003.002-.01.007-.036.027-.135.102a38.914 38.914 0 0 0-1.938 1.565c-.528.459-1.073.966-1.49 1.439a5.061 5.061 0 0 0-.54.711c-.13.216-.267.502-.268.812" fill="#161616"/>
</svg>
